PathFileType	4	(X/Y/Z)	C:\Users\dbl\Desktop\20210112(1)\20210112\bx_y_5_901.trc
DataRate	CameraRate	NumFrames	NumMarkers	Units	OrigDataRate	OrigDataStartFrame	OrigNumFrames
50.00	50.00	       6	43	mm	50.00	132	       527
Frame#	Time	Top.Head			R.Acromium			L.Acromium			Sternum			R.ASIS			L.ASIS			V.Sacral			R.Thigh.Upper			R.Thigh.Front			R.Thigh.Rear			R.Knee.Lat			R.Knee.Med			R.Shank.Upper			R.Shank.Front			R.Shank.Rear			R.Ankle.Lat			R.Midfoot.Lat			R.Toe.Lat			R.Toe.Tip			R.Toe.Med			R.Ankle.Med			R.Midfoot.Sup			R.Heel			L.Thigh.Upper			L.Thigh.Front			L.Thigh.Rear			L.Knee.Lat			L.Knee.Med			L.Shank.Upper			L.Shank.Front			L.Shank.Rear			L.Ankle.Lat			L.Midfoot.Lat			L.Toe.Lat			L.Toe.Tip			L.Toe.Med			L.Ankle.Med			L.Midfoot.Sup			L.Heel			origin1 front left			origin2 front right			origin 3 back right			origin 4 back leftt			
		X1	Y1	Z1	X2	Y2	Z2	X3	Y3	Z3	X4	Y4	Z4	X5	Y5	Z5	X6	Y6	Z6	X7	Y7	Z7	X8	Y8	Z8	X9	Y9	Z9	X10	Y10	Z10	X11	Y11	Z11	X12	Y12	Z12	X13	Y13	Z13	X14	Y14	Z14	X15	Y15	Z15	X16	Y16	Z16	X17	Y17	Z17	X18	Y18	Z18	X19	Y19	Z19	X20	Y20	Z20	X21	Y21	Z21	X22	Y22	Z22	X23	Y23	Z23	X24	Y24	Z24	X25	Y25	Z25	X26	Y26	Z26	X27	Y27	Z27	X28	Y28	Z28	X29	Y29	Z29	X30	Y30	Z30	X31	Y31	Z31	X32	Y32	Z32	X33	Y33	Z33	X34	Y34	Z34	X35	Y35	Z35	X36	Y36	Z36	X37	Y37	Z37	X38	Y38	Z38	X39	Y39	Z39	X40	Y40	Z40	X41	Y41	Z41	X42	Y42	Z42	X43	Y43	Z43	

132	2.620	-96.42804	110.27453	1016.03961	-304.66452	-37.09492	865.33252	-334.09958	255.55811	904.10425	-412.62115	114.05436	1114.79504	-781.66058	-21.90455	957.74463	-868.00757	213.77582	950.25580	-915.47632	82.81916	1101.24146	-841.76270	-84.99242	844.65222	-768.56665	-19.89725	799.97192	-842.32532	-71.94875	690.96521	-846.60394	-47.90669	601.02155	-798.90021	73.74626	567.44434	-823.94659	-31.64383	557.58423	-762.48456	12.02914	525.83099	-848.18182	-41.28249	471.40836	-772.60553	-11.60320	202.68301	-663.38007	-67.49503	161.56363	-622.74408	-78.76772	157.49748	-561.76941	-37.84650	162.78455	-603.98969	20.29186	166.14722	-726.75677	71.71245	222.53694	-676.45648	53.09811	163.43292	-795.99359	51.36308	173.66109	-833.90210	276.68921	859.55859	-771.78387	207.42941	805.82764	-863.59363	283.77716	727.89374	-851.80316	247.52785	618.30237	-798.35559	138.49268	566.89996	-834.60461	241.00514	563.37445	-770.98981	199.14937	535.13824	-855.30652	253.97575	485.63150	-775.08807	227.01929	203.15190	-664.65900	298.66849	160.25294	-627.17834	306.28064	161.84358	-561.89764	258.42572	164.01915	-595.67804	221.43379	172.48212	-720.35742	156.18970	222.44460	-677.14856	175.56174	161.44475	-799.10754	176.87997	182.97983	-528.13208	303.67068	146.26675	-518.09119	-73.06884	143.18060	-876.02246	-78.99126	141.21530	-882.92432	295.80264	144.36012	
133	2.640	-98.13666	110.49709	1016.39850	-306.03479	-37.31528	866.05737	-335.19949	256.03784	904.08875	-413.02362	114.42930	1115.01392	-782.76172	-21.37027	957.60486	-868.38403	213.85657	949.82819	-917.29156	82.80110	1100.75134	-843.09943	-84.83022	844.25128	-769.80005	-19.69829	799.60126	-843.44543	-71.89193	690.52887	-847.50977	-47.56253	600.71967	-799.78986	73.81924	567.17853	-824.84058	-31.50693	557.17517	-763.30304	12.11113	525.48877	-848.89856	-41.13224	470.93613	-772.57520	-11.48406	202.54315	-663.37189	-67.42529	161.62294	-622.73602	-78.71824	157.50787	-561.76703	-37.87031	162.78035	-603.95856	20.30880	166.16064	-726.95233	71.82076	222.28767	-676.42316	53.17720	163.43933	-796.00586	51.41451	173.39981	-835.29474	276.80792	859.54974	-773.08569	207.55295	805.76550	-864.75732	284.10883	727.81067	-852.79480	247.70651	618.04468	-799.21594	138.58614	566.87671	-835.47369	241.22539	563.16937	-771.69928	199.33911	535.15234	-856.02368	254.18076	485.50723	-775.19940	227.29674	203.10123	-664.70868	298.72415	160.22917	-627.16821	306.28760	161.81879	-561.90167	258.38419	164.06726	-595.74512	221.45349	172.44933	-720.44550	156.29474	222.43750	-677.11877	175.62585	161.47942	-799.13873	176.94698	182.93173	-528.16071	303.70889	146.25790	-518.07001	-73.02940	143.22261	-876.04517	-78.96889	141.24640	-882.80792	295.96362	144.46375	
134	2.660	-100.00848	110.56764	1017.62134	-307.51495	-37.56768	867.29907	-336.36130	256.51584	904.48602	-413.50555	114.79632	1115.37720	-783.87231	-20.81105	957.52283	-868.65076	213.94086	949.47284	-919.26697	82.69635	1100.32617	-844.56848	-84.55127	843.83136	-771.19904	-19.57138	799.31268	-844.64661	-71.80577	690.11401	-848.38104	-47.19129	600.42059	-800.87103	73.76088	566.86432	-825.86346	-31.41563	556.77747	-764.21198	12.17090	525.23834	-849.67352	-41.04925	470.49686	-772.55109	-11.43331	202.44107	-663.41473	-67.38179	161.61745	-622.74036	-78.64886	157.51474	-561.79370	-37.87659	162.80435	-603.94250	20.32574	166.17665	-727.14044	71.91082	222.12866	-676.40564	53.21919	163.44569	-796.03986	51.43536	173.18916	-836.84229	276.93039	859.56989	-774.51202	207.63412	805.72443	-866.03516	284.37039	727.74182	-853.87018	247.90553	617.85962	-800.10559	138.87715	566.78375	-836.44238	241.35582	562.96332	-772.47174	199.58841	535.25439	-856.81506	254.42918	485.37738	-775.25928	227.51306	203.12891	-664.71112	298.79321	160.23744	-627.15607	306.29370	161.79567	-561.92133	258.32037	164.15262	-595.83026	221.46794	172.39297	-720.52399	156.35440	222.49736	-677.13550	175.69637	161.55000	-799.15979	177.04390	182.88924	-528.23230	303.73001	146.24913	-518.05835	-73.02280	143.22209	-876.05078	-78.93392	141.27841	-882.70038	296.08627	144.53618	
135	2.680	-102.02490	110.38887	1019.70410	-309.10049	-37.85019	869.05725	-337.58386	256.98663	905.30145	-414.06641	115.15456	1115.88452	-784.98706	-20.22975	957.49957	-868.80640	214.02847	949.19122	-921.34857	82.63853	1099.95361	-846.13916	-84.14641	843.50012	-772.70508	-19.45415	799.14246	-845.88354	-71.67599	689.81134	-849.21399	-46.79463	600.12592	-802.04376	73.64931	566.59241	-826.95227	-31.39458	556.46680	-765.13757	12.19275	525.10498	-850.49310	-41.05804	470.15112	-772.56854	-11.45046	202.34988	-663.48071	-67.39844	161.54747	-622.76306	-78.59401	157.52138	-561.86133	-37.84430	162.85593	-603.95306	20.33265	166.19339	-727.29187	71.95970	222.09782	-676.43317	53.17210	163.42633	-796.11188	51.40202	173.08174	-838.48694	277.08334	859.57947	-776.12592	207.68472	805.69019	-867.43726	284.56595	727.65430	-854.99585	248.16609	617.76788	-801.01025	139.47679	566.67773	-837.48584	241.45659	562.78613	-773.32092	199.92607	535.41571	-857.63611	254.70349	485.20419	-775.29089	227.65974	203.21069	-664.66913	298.87747	160.25365	-627.15033	306.31647	161.77042	-561.94177	258.26401	164.23466	-595.91669	221.49380	172.33824	-720.60101	156.40898	222.65388	-677.22101	175.77704	161.69099	-799.16913	177.16524	182.86618	-528.30872	303.72165	146.24593	-518.06122	-73.03499	143.18872	-876.05322	-78.92271	141.28413	-882.62177	296.13193	144.56314	
136	2.700	-104.17590	109.91103	1022.53748	-310.78690	-38.16084	871.33142	-338.86606	257.44470	906.54071	-414.70569	115.50319	1116.53564	-786.10095	-19.62922	957.53632	-868.84961	214.11922	948.98480	-923.45850	82.73198	1099.58875	-847.76367	-83.64875	843.28870	-774.23364	-19.24401	799.04333	-847.11511	-71.49726	689.63593	-850.00476	-46.37418	599.83704	-803.15405	73.58702	566.47308	-828.03595	-31.41446	556.28033	-766.02844	12.16811	525.07855	-851.34351	-41.10326	469.91187	-772.61194	-11.49995	202.25255	-663.53503	-67.47820	161.45654	-622.79919	-78.57529	157.53262	-561.96667	-37.78402	162.91151	-603.98608	20.32650	166.20325	-727.39594	71.96305	222.13026	-676.50623	53.03208	163.37582	-796.22198	51.33014	173.09589	-840.18604	277.27258	859.56628	-777.87402	207.76314	805.67126	-868.93762	284.75677	727.53790	-856.15399	248.50346	617.73187	-801.95227	140.33745	566.59821	-838.55054	241.60095	562.65222	-774.26172	200.30391	535.54614	-858.49286	254.94435	485.00583	-775.32330	227.76042	203.31483	-664.61328	298.96710	160.24425	-627.15753	306.36206	161.73985	-561.95081	258.25479	164.25267	-595.96136	221.53706	172.33197	-720.67358	156.49911	222.89015	-677.32965	175.87079	161.91837	-799.17493	177.30527	182.85686	-528.34656	303.69818	146.25676	-518.07623	-73.04917	143.14761	-876.05835	-78.94885	141.25900	-882.56781	296.11719	144.56136	
137	2.720	-106.45929	109.17659	1025.89453	-312.56970	-38.49772	874.12109	-340.20667	257.88461	908.20917	-415.42285	115.84132	1117.33044	-787.20868	-19.01229	957.63416	-868.77899	214.21289	948.85504	-925.55078	82.99529	1099.21936	-849.38062	-83.09653	843.16302	-775.74213	-18.88710	798.96375	-848.32916	-71.26505	689.54004	-850.74969	-45.93155	599.55548	-804.11707	73.62966	566.51410	-829.08038	-31.39899	556.18250	-766.88330	12.08741	525.12482	-852.20740	-41.09399	469.75027	-772.64270	-11.54142	202.16734	-663.55969	-67.57936	161.38895	-622.83856	-78.59418	157.54970	-562.08698	-37.72844	162.94937	-604.02905	20.31051	166.20398	-727.46326	71.93230	222.16991	-676.58307	52.87327	163.32407	-796.33844	51.25906	173.18709	-841.90405	277.51080	859.54199	-779.59357	207.96295	805.70508	-870.45374	285.02713	727.38745	-857.34082	248.87396	617.68195	-802.94452	141.30225	566.52795	-839.61505	241.80339	562.54303	-775.28467	200.62656	535.57312	-859.40051	255.10979	484.79379	-775.36121	227.82352	203.42145	-664.58398	299.04797	160.19781	-627.18195	306.41553	161.70061	-561.94977	258.28793	164.20848	-595.93829	221.59584	172.39369	-720.72473	156.60941	223.15710	-677.38776	175.98158	162.18852	-799.19025	177.44044	182.86436	-528.33423	303.68753	146.27168	-518.08551	-73.05706	143.11766	-876.07776	-79.00993	141.23460	-882.53979	296.08417	144.55289	
